<svg id="egRlaXtsDzp1" xmlns="http://www.w3.org/2000/svg" xmlns:xlink="http://www.w3.org/1999/xlink" viewBox="0 0 300 300" shape-rendering="geometricPrecision" text-rendering="geometricPrecision" project-id="9f074b4b14094fbbbe3c3da4e4b446bc" export-id="907f5d16f0914aaea6aa72601a17077f" cached="false"><defs><filter id="egRlaXtsDzp3-filter" x="-150%" width="400%" y="-150%" height="400%"><feGaussianBlur id="egRlaXtsDzp3-filter-blur-0" stdDeviation="0,0" result="result"/></filter></defs><g transform="matrix(1.306085 0 0 1.306094-53.096187-60.72822)"><path d="M0,94.194884c0,0-3.413317-74.093591,79.54106-74.093591s79.54106,74.093591,79.54106,74.093591v142.378289l-19.885265-23.55182-19.885265,23.55182-19.885265-23.55182-19.885265,23.55182-19.885265-23.55182-19.885265,23.55182-19.885265-23.55182L0,236.573173L0,94.194884Z" transform="translate(81.45894 36.005068)" filter="url(#egRlaXtsDzp3-filter)" stroke="#000" stroke-width="3" stroke-linecap="round" stroke-linejoin="round"/><path d="M0,94.194884c0,0-3.413317-74.093591,79.54106-74.093591s79.54106,74.093591,79.54106,74.093591v142.378289l-19.885265-23.55182-19.885265,23.55182-19.885265-23.55182-19.885265,23.55182-19.885265-23.55182-19.885265,23.55182-19.885265-23.55182L0,236.573173L0,94.194884Z" transform="translate(70.45894 30.005068)" fill="#fbf9db" stroke="#000" stroke-width="3" stroke-linecap="round" stroke-linejoin="round"/><g transform="translate(.980408 0)"><ellipse rx="13.343147" ry="17.346092" transform="matrix(-1.199541 0 0 1.307693 176.680175 122.689917)" fill="#e585f6" stroke="#000"/><ellipse rx="13.343147" ry="17.346092" transform="matrix(-1.199541 0 0 1.307693 121.359013 122.689917)" fill="#e585f6" stroke="#000"/></g></g></svg>
